{"title":"Safe 2012 BRRip x264 AAC-UNiQUE","uid":7561592,"size":1538385991,"categoryP":"video","categoryS":"movies","magnet":"?xt=urn:btih:13b2ccf48cfe83c1c6ef1004ce6400943f7d0dfb&amp;dn=Safe+2012+BRRip+x264+AAC-UNiQUE&amp;tr=udp%3A%2F%2Ftracker.openbittorrent.com%3A80&amp;tr=udp%3A%2F%2Fopen.demonii.com%3A1337&amp;tr=udp%3A%2F%2Ftracker.coppersurfer.tk%3A6969&amp;tr=udp%3A%2F%2Fexodus.desync.com%3A6969","seeders":1,"leechers":0,"uploader":"neon","files":-1,"time":1345754053,"description":"Mei, a young girl whose memory holds a priceless numerical code, finds herself pursued by the Triads, the Russian mob, and corrupt NYC cops. Coming to her aid is an ex-cage fighter whose life was destroyed by the gangsters on Mei's trail.\n \niMDB: &lt;a href=&quot; http://www.imdb.com/title/tt1656190/&quot; rel=&quot;nofollow&quot; target=&quot;_NEW&quot;&gt; http://www.imdb.com/title/tt1656190/&lt;/a&gt;\n\nGeneral\n Complete name : Safe 2012 BRRip x264 AAC-UNiQUE.mp4\n Format : MPEG-4\n Format profile : Base Media\n Codec ID : isom\n File size : 1.39 GiB\n Duration : 1h 34mn\n Overall bit rate mode : Variable\n Overall bit rate : 2 116 Kbps\n Encoded date : UTC 2012-08-23 15:40:21\n \nVideo\n ID : 1\n Format : AVC\n Format/Info : Advanced Video Codec\n Format profile : &lt;a class=&quot;__cf_email__&quot; href=&quot;/cdn-cgi/l/email-protection&quot; data-cfemail=&quot;2a62434d426a661e041b&quot;&gt;[email&amp;#160;protected]&lt;/a&gt;&lt;script data-cfhash='f9e31' type=&quot;text/javascript&quot;&gt;\n/* &lt;![CDATA[ */!function(){try{var t=&quot;currentScript&quot;in document?document.currentScript:function(){for(var t=document.getElementsByTagName(&quot;script&quot;),e=t.length;e--;)if(t[e].getAttribute(&quot;data-cfhash&quot;))return t[e]}();if(t&amp;&amp;t.previousSibling){var e,r,n,i,c=t.previousSibling,a=c.getAttribute(&quot;data-cfemail&quot;);if(a){for(e=&quot;&quot;,r=parseInt(a.substr(0,2),16),n=2;a.length-n;n+=2)i=parseInt(a.substr(n,2),16)^r,e+=String.fromCharCode(i);e=document.createTextNode(e),c.parentNode.replaceChild(e,c)}t.parentNode.removeChild(t);}}catch(u){}}()/* ]]&gt; */&lt;/script&gt;\n Format settings, CABAC : Yes\n Format settings, ReFrames : 3 frames\n Codec ID : avc1\n Codec ID/Info : Advanced Video Coding\n Duration : 1h 34mn\n Bit rate mode : Variable\n Bit rate : 1 782 Kbps\n Maximum bit rate : 40.0 Mbps\n Width : 720 pixels\n Height : 304 pixels\n Display aspect ratio : 2.35:1\n Frame rate mode : Constant\n Frame rate : 23.976 fps\n Color space : YUV\n Chroma subsampling : 4:2:0\n Bit depth : 8 bits\n Scan type : Progressive\n Bits/(Pixel*Frame) : 0.340\n Stream size : 1.17 GiB (84%)\n Writing library : x264 core 125 r2208 d9d2288\n \nAudio\n ID : 2\n Format : AAC\n Format/Info : Advanced Audio Codec\n Format profile : LC\n Codec ID : 40\n Duration : 1h 34mn\n Bit rate mode : Variable\n Bit rate : 331 Kbps\n Maximum bit rate : 420 Kbps\n Channel(s) : 6 channels\n Channel positions : Front: L C R, Side: L R, LFE\n Sampling rate : 48.0 KHz\n Compression mode : Lossy\n Stream size : 223 MiB (16%)\n Language : English\n Encoded date : UTC 2012-08-23 15:40:44\n \nSubtitles : Hardcoded for foreign parts and full english .srt included\n \nSource : 720p.BluRay.x264-HAiDEAF - Thanks!\n &lt;a href=&quot;\nhttp://i.imgur.com/h4iWk.png&quot; rel=&quot;nofollow&quot; target=&quot;_NEW&quot;&gt;\nhttp://i.imgur.com/h4iWk.png&lt;/a&gt; &lt;a href=&quot;\nhttp://i.imgur.com/GMdPb.png&quot; rel=&quot;nofollow&quot; target=&quot;_NEW&quot;&gt;\nhttp://i.imgur.com/GMdPb.png&lt;/a&gt; &lt;a href=&quot;\nhttp://i.imgur.com/5awLy.png&quot; rel=&quot;nofollow&quot; target=&quot;_NEW&quot;&gt;\nhttp://i.imgur.com/5awLy.png&lt;/a&gt; &lt;a href=&quot;\nhttp://i.imgur.com/LafZ0.png&quot; rel=&quot;nofollow&quot; target=&quot;_NEW&quot;&gt;\nhttp://i.imgur.com/LafZ0.png&lt;/a&gt;","torrent":{"xt":"urn:btih:13b2ccf48cfe83c1c6ef1004ce6400943f7d0dfb","amp;dn":"Safe+2012+BRRip+x264+AAC-UNiQUE","amp;tr":["udp%3A%2F%2Ftracker.openbittorrent.com%3A80","udp%3A%2F%2Fopen.demonii.com%3A1337","udp%3A%2F%2Ftracker.coppersurfer.tk%3A6969","udp%3A%2F%2Fexodus.desync.com%3A6969"],"infoHash":"13b2ccf48cfe83c1c6ef1004ce6400943f7d0dfb","infoHashBuffer":{"type":"Buffer","data":[19,178,204,244,140,254,131,193,198,239,16,4,206,100,0,148,63,125,13,251]},"announce":[],"urlList":[]}}